<svg width="200" height="200" viewBox="0 0 200 200" xmlns="http://www.w3.org/2000/svg">
  <!-- Background -->
  <rect width="200" height="200" fill="none"/>

  <!-- Fire base (logs) -->
  <g>
    <rect x="60" y="150" width="80" height="10" fill="#8B4513" transform="rotate(-15 60 150)" />
    <rect x="60" y="150" width="80" height="10" fill="#A0522D" transform="rotate(15 140 150)" />
  </g>

  <!-- Outer flame -->
  <path d="M100,50 C120,90 80,90 100,130 C130,110 110,70 100,50" fill="orange" />

  <!-- Inner flame -->
  <path d="M100,70 C110,90 90,90 100,120 C115,105 105,80 100,70" fill="gold" />

  <!-- Flame center -->
  <path d="M100,90 C105,100 95,100 100,115 C108,105 102,95 100,90" fill="white" />
</svg>
